<?xml version="1.0" encoding="UTF-8"?> <svg xmlns="http://www.w3.org/2000/svg" xmlns:xlink="http://www.w3.org/1999/xlink" width="2048" height="1075" viewBox="0 0 2048 1075"><defs><clipPath id="a"><rect width="2048" height="1075" fill="none"></rect></clipPath><radialGradient id="b" cx="0.11" cy="-0.227" r="1.77" gradientTransform="matrix(0.75, 0, 0, -1.002, 0, 2.002)" gradientUnits="objectBoundingBox"><stop offset="0" stop-color="#4c02f1"></stop><stop offset="0.004" stop-color="#4c02f1"></stop><stop offset="0.008" stop-color="#4b02ef"></stop><stop offset="0.126" stop-color="#3802c3"></stop><stop offset="0.249" stop-color="#29029e"></stop><stop offset="0.377" stop-color="#1c037f"></stop><stop offset="0.51" stop-color="#120367"></stop><stop offset="0.651" stop-color="#0b0357"></stop><stop offset="0.806" stop-color="#07034d"></stop><stop offset="1" stop-color="#06044a"></stop></radialGradient><clipPath id="c"><rect width="1542" height="1157" transform="translate(0 -0.498)" fill="none"></rect></clipPath><clipPath id="d"><path d="M486.243,322.665a.805.805,0,0,1,0-1.393l30.164-17.414a13.171,13.171,0,0,1,13.112,0l30.167,17.414a.808.808,0,0,1,0,1.393l-30.164,17.417a13.149,13.149,0,0,1-13.109,0h0Zm27.774-22.95-30.164,17.417a5.586,5.586,0,0,0,0,9.676l30.164,17.414a17.921,17.921,0,0,0,17.892,0l30.164-17.414a5.584,5.584,0,0,0,0-9.676l-30.164-17.417a17.954,17.954,0,0,0-17.892,0" transform="translate(-481.059 -297.327)" fill="none"></path></clipPath><linearGradient id="e" x1="-14.751" y1="7.961" x2="-14.721" y2="7.961" gradientUnits="objectBoundingBox"><stop offset="0" stop-color="#e39a65"></stop><stop offset="1" stop-color="#e95f8d"></stop></linearGradient><clipPath id="f"><path d="M494.654,319.74l-51.909-29.971a3.106,3.106,0,0,1,0-5.382l51.906-29.969a24.367,24.367,0,0,1,24.289,0l51.914,29.969a3.111,3.111,0,0,1,0,5.384L518.943,319.74a24.376,24.376,0,0,1-24.289,0m-2.39-69.465-51.906,29.969a7.884,7.884,0,0,0,0,13.665l51.906,29.971a29.143,29.143,0,0,0,29.069,0l51.912-29.969a7.89,7.89,0,0,0,0-13.667L521.33,250.275a29.138,29.138,0,0,0-29.067,0" transform="translate(-436.407 -246.392)" fill="none"></path></clipPath><linearGradient id="g" x1="-7.967" y1="6.431" x2="-7.948" y2="6.431" xlink:href="#e"></linearGradient><clipPath id="h"><path d="M133.432,338.092,81.523,308.126a3.111,3.111,0,0,1,0-5.387l51.909-29.969a24.359,24.359,0,0,1,24.289,0l51.912,29.971a3.111,3.111,0,0,1,0,5.384l-51.906,29.966a24.38,24.38,0,0,1-24.292,0m-2.393-69.462L79.133,298.6a7.887,7.887,0,0,0,0,13.665l51.909,29.971a29.159,29.159,0,0,0,29.069,0l51.906-29.971a7.882,7.882,0,0,0,0-13.662L160.108,268.63a29.125,29.125,0,0,0-29.069,0" transform="translate(-75.185 -264.744)" fill="none"></path></clipPath><linearGradient id="i" x1="-1.373" y1="5.851" x2="-1.354" y2="5.851" xlink:href="#e"></linearGradient><clipPath id="k"><rect width="639.345" height="369.127" fill="none"></rect></clipPath><clipPath id="l"><path d="M146.715,378.63c-1.357-.784-2.971-2.107-2.971-3.971,0-1.927,1.755-4.094,4.713-5.8L437.234,199.668a25.746,25.746,0,0,1,12.467-3.074,18.941,18.941,0,0,1,9.234,2.074L882.567,443.253c1.354.784,2.971,2.11,2.971,3.971,0,1.928-1.755,4.1-4.716,5.806L592.046,622.215c-6.348,3.67-16.286,4.127-21.7,1h0Zm288.113-183.1L146.052,364.724c-4.508,2.6-7.093,6.225-7.093,9.938,0,3.233,1.907,6.117,5.366,8.108L567.96,627.358h0a23.723,23.723,0,0,0,11.681,2.737,30.291,30.291,0,0,0,14.813-3.745L883.227,457.162c4.51-2.6,7.1-6.225,7.1-9.938,0-3.233-1.907-6.114-5.366-8.111L461.325,194.528a23.7,23.7,0,0,0-11.681-2.74,30.3,30.3,0,0,0-14.816,3.745" transform="translate(-138.959 -191.788)" fill="none"></path></clipPath><linearGradient id="m" x1="-0.475" y1="1.514" x2="-0.472" y2="1.514" xlink:href="#e"></linearGradient><clipPath id="n"><path d="M355.776,65.614v0l-.033.013L348.9,68.014l2.411.568a11.963,11.963,0,0,0-2.259,4.228L265.435,344.282c-2.069,6.733.966,14.914,6.78,18.27L641.938,576.011a10.933,10.933,0,0,0,2.722,1.113l-.915,1.994,6.538-2.3-.013-.01a10.441,10.441,0,0,0,5.944-6.913l83.613-271.472c2.074-6.733-.961-14.911-6.775-18.268L363.326,66.7a10.173,10.173,0,0,0-5.086-1.434,8.788,8.788,0,0,0-2.465.35" transform="translate(-264.785 -65.264)" fill="none"></path></clipPath><radialGradient id="o" cx="0.194" cy="-0.023" r="1.117" gradientTransform="matrix(1.074, 0, 0, -1, 0.105, 3.848)" gradientUnits="objectBoundingBox"><stop offset="0" stop-color="#e39a65"></stop><stop offset="0.474" stop-color="#a92ffb"></stop><stop offset="0.592" stop-color="#891cfa"></stop><stop offset="0.742" stop-color="#6507fa"></stop><stop offset="0.802" stop-color="#0d0c6f"></stop><stop offset="1" stop-color="#0d0c6f"></stop></radialGradient><clipPath id="p"><path d="M405.134,188.111,169.184,324.334l-7.869-3,2.21,11.041.01-.008a6.6,6.6,0,0,0,3.542,4.42L535.644,549.577c5.376,3.1,14.76,2.714,20.961-.869L793.156,412.133c2.92-1.683,4.6-3.773,5.012-5.839l.015.016,2.256-10.743-9.285,2.364.131.154L426.092,187.24a18.583,18.583,0,0,0-9.1-2.092,24.331,24.331,0,0,0-11.855,2.963" transform="translate(-161.315 -185.148)" fill="none"></path></clipPath><radialGradient id="q" cx="0.01" cy="0.383" r="1.707" gradientTransform="matrix(0.575, 0, 0, -1, -0.276, 3.704)" gradientUnits="objectBoundingBox"><stop offset="0" stop-color="#e39a65"></stop><stop offset="0.474" stop-color="#a92ffb"></stop><stop offset="0.566" stop-color="#891cfa"></stop><stop offset="0.683" stop-color="#6507fa"></stop><stop offset="0.738" stop-color="#0d0c6f"></stop><stop offset="1" stop-color="#0d0c6f"></stop></radialGradient><clipPath id="r"><path d="M404.667,183.346,166.436,320.89c-6.245,3.606-6.926,9.062-1.514,12.184L536.108,547.379c5.412,3.125,14.86,2.732,21.11-.874L795.447,408.964c6.248-3.608,6.926-9.064,1.516-12.19l-371.186-214.3a18.7,18.7,0,0,0-9.17-2.11,24.525,24.525,0,0,0-11.94,2.984" transform="translate(-161.268 -180.362)" fill="none"></path></clipPath><radialGradient id="s" cx="0.103" cy="0.073" r="1.52" gradientTransform="matrix(0.576, 0, 0, -1, -0.272, 3.744)" gradientUnits="objectBoundingBox"><stop offset="0" stop-color="#e39a65"></stop><stop offset="0.474" stop-color="#a92ffb"></stop><stop offset="0.585" stop-color="#891cfa"></stop><stop offset="0.726" stop-color="#6507fa"></stop><stop offset="1" stop-color="#3919bb"></stop></radialGradient><clipPath id="u"><rect width="370.759" height="221.152" fill="none"></rect></clipPath><clipPath id="w"><path d="M346.6,73.67l-83.61,271.47c-2.071,6.733.961,14.911,6.777,18.268L639.487,576.872c5.816,3.354,12.208.619,14.279-6.114l83.61-271.472c2.069-6.731-.964-14.911-6.777-18.27L360.872,67.556a10.155,10.155,0,0,0-5.081-1.434c-4.076,0-7.725,2.765-9.2,7.548" transform="translate(-262.335 -66.122)" fill="none"></path></clipPath><radialGradient id="x" cx="-0.112" cy="0.205" r="1.116" gradientTransform="matrix(1.074, 0, 0, -1, 0.105, 3.838)" xlink:href="#s"></radialGradient><clipPath id="y"><path d="M345.986,77.155,266.049,336.679c-1.982,6.446.92,14.271,6.484,17.481L631.149,561.382c5.562,3.212,11.681.591,13.662-5.852l79.935-259.524c1.984-6.446-.92-14.269-6.484-17.484L359.648,71.305a9.731,9.731,0,0,0-4.865-1.372c-3.9,0-7.391,2.647-8.8,7.222" transform="translate(-265.426 -69.933)" fill="none"></path></clipPath><linearGradient id="z" x1="-1.471" y1="1.975" x2="-1.466" y2="1.975" gradientUnits="objectBoundingBox"><stop offset="0" stop-color="#3919bb"></stop><stop offset="1" stop-color="#6507fa"></stop></linearGradient><clipPath id="ab"><rect width="459.944" height="492.819" fill="none"></rect></clipPath><clipPath id="ad"><rect width="312.343" height="336.298" fill="none"></rect></clipPath><clipPath id="ae"><path d="M346.438,106.437l-54.9,178.25c-1.359,4.42.632,9.787,4.449,11.994L538.754,436.839c3.816,2.2,8.013.409,9.373-4.014l54.9-178.25c1.359-4.418-.635-9.787-4.451-11.992L355.813,102.425a6.661,6.661,0,0,0-3.336-.943c-2.675,0-5.071,1.817-6.039,4.955" transform="translate(-291.113 -101.482)" fill="none"></path></clipPath><radialGradient id="af" cx="-1.075" cy="-0.32" r="2.648" gradientTransform="matrix(1.074, 0, 0, -1, 0.177, 5.307)" xlink:href="#s"></radialGradient><clipPath id="ah"><rect width="312.34" height="336.298" fill="none"></rect></clipPath><clipPath id="ai"><rect width="177.138" height="103.489" fill="none"></rect></clipPath><clipPath id="aj"><path d="M224.375,271.973l-73.487-42.431a5.394,5.394,0,0,1,0-9.342l73.484-42.426a35.484,35.484,0,0,1,35.381,0L333.243,220.2a5.394,5.394,0,0,1,0,9.342l-73.487,42.428a35.489,35.489,0,0,1-35.381,0m-2.393-98.339L148.5,216.06a10.17,10.17,0,0,0,0,17.623l73.487,42.433a40.284,40.284,0,0,0,40.159,0l73.487-42.431a10.173,10.173,0,0,0,0-17.623l-73.489-42.428a40.255,40.255,0,0,0-40.161,0" transform="translate(-143.41 -168.268)" fill="none"></path></clipPath><linearGradient id="ak" x1="-1.868" y1="6.396" x2="-1.855" y2="6.396" xlink:href="#e"></linearGradient><clipPath id="ar"><rect width="2048" height="1075"></rect></clipPath></defs><g id="aq" clip-path="url(#ar)"><rect width="2048" height="1075" fill="#fff"></rect><g transform="translate(0.312)"><g transform="translate(-0.312)" clip-path="url(#a)"><rect width="2048" height="1075" fill="url(#b)"></rect></g></g><g transform="translate(253 0.498)"><g clip-path="url(#c)"><g transform="translate(1236.324 764.132)"><g clip-path="url(#d)"><rect width="83.81" height="49.288" transform="translate(0 0)" fill="url(#e)"></rect></g></g><g transform="translate(1121.568 633.229)"><g clip-path="url(#f)"><rect width="140.782" height="81.372" fill="url(#g)"></rect></g></g><g transform="translate(193.226 680.393)"><g clip-path="url(#h)"><rect width="140.782" height="81.372" transform="translate(0 0)" fill="url(#i)"></rect></g></g><g clip-path="url(#c)"><g transform="translate(414.462 525.494)" opacity="0.6"><g clip-path="url(#k)"><path d="M536.108,571.489,164.922,357.184c-5.412-3.125-4.731-8.581,1.514-12.187L404.667,207.456c6.248-3.606,15.7-4,21.107-.874l371.188,214.3c5.407,3.125,4.731,8.581-1.516,12.19L557.218,570.615c-6.25,3.606-15.7,4-21.11.874" transform="translate(-161.27 -204.472)" fill="#020230"></path></g></g></g><g transform="translate(357.125 492.896)"><g clip-path="url(#l)"><rect width="751.364" height="438.307" transform="translate(0 0)" fill="url(#m)"></rect></g></g><g transform="translate(680.499 167.729)"><g clip-path="url(#n)"><rect width="478.535" height="513.855" transform="translate(-1.419 0)" fill="url(#o)"></rect></g></g><g transform="translate(414.58 475.831)"><g clip-path="url(#p)"><rect width="639.124" height="367.531" transform="translate(0 0)" fill="url(#q)"></rect></g></g><g transform="translate(414.461 463.531)"><g clip-path="url(#r)"><rect width="642.864" height="370.142" transform="translate(-1.759)" fill="url(#s)"></rect></g></g><g clip-path="url(#c)"><path d="M795.41,316.9,557.181,454.442c-6.25,3.6-15.7,3.994-21.11.871l-371.186-214.3a6.943,6.943,0,0,1-3.377-3.852c-.717,2.485.334,4.983,3.377,6.739L536.071,458.2c5.41,3.123,14.86,2.732,21.11-.874L795.41,319.787c4.12-2.375,5.762-5.549,4.891-8.335-.558,1.933-2.159,3.865-4.891,5.443" transform="translate(253.229 372.344)" fill="#fff"></path><g transform="translate(581.955 513.436)" opacity="0.4"><g clip-path="url(#u)"><path d="M239.652,237.611l-12.531-7.235c-1.007-.581-.882-1.6.28-2.267l14.793-8.54a4.361,4.361,0,0,1,3.924-.162l12.534,7.235c1,.581.879,1.6-.283,2.267l-14.793,8.54a4.353,4.353,0,0,1-3.924.162" transform="translate(-226.442 -169.58)" fill="#06033e"></path><path d="M247.181,241.96l-12.531-7.235c-1.007-.581-.879-1.6.283-2.267l14.79-8.54a4.358,4.358,0,0,1,3.927-.162l12.531,7.235c1,.581.879,1.6-.283,2.267l-14.79,8.54a4.358,4.358,0,0,1-3.927.162" transform="translate(-214.619 -162.755)" fill="#06033e"></path><path d="M254.712,246.307l-12.531-7.235c-1.007-.581-.879-1.6.283-2.267l14.79-8.54a4.358,4.358,0,0,1,3.927-.162l12.531,7.232c1,.583.879,1.6-.283,2.269l-14.79,8.54a4.358,4.358,0,0,1-3.927.162" transform="translate(-202.796 -155.93)" fill="#06033e"></path><path d="M265.128,241.875,252.6,234.646c-1.007-.583-.882-1.6.28-2.267l12.418-7.17a4.361,4.361,0,0,1,3.924-.162l12.534,7.235c1,.581.879,1.6-.283,2.264l-12.418,7.173a4.352,4.352,0,0,1-3.924.157" transform="translate(-186.445 -160.727)" fill="#06033e"></path><path d="M272.658,246.225l-12.531-7.232c-1.007-.583-.881-1.6.28-2.267l12.418-7.17a4.37,4.37,0,0,1,3.924-.164l12.531,7.237c1.007.581.882,1.6-.28,2.264l-12.418,7.173a4.361,4.361,0,0,1-3.924.159" transform="translate(-174.623 -153.903)" fill="#06033e"></path><path d="M280.188,250.573l-12.531-7.232c-1.007-.583-.881-1.6.28-2.269l12.418-7.168a4.37,4.37,0,0,1,3.924-.164l12.534,7.237c1,.581.879,1.6-.283,2.264l-12.418,7.173a4.36,4.36,0,0,1-3.924.159" transform="translate(-162.801 -147.076)" fill="#06033e"></path><path d="M287.718,254.92l-12.531-7.232c-1.007-.583-.881-1.6.28-2.269l12.418-7.168a4.37,4.37,0,0,1,3.924-.164l12.534,7.237c1,.578.879,1.6-.283,2.264l-12.418,7.17a4.353,4.353,0,0,1-3.924.162" transform="translate(-150.978 -140.252)" fill="#06033e"></path><path d="M295.249,259.268l-12.531-7.235c-1.007-.581-.881-1.6.28-2.267l12.418-7.168a4.37,4.37,0,0,1,3.924-.164l12.531,7.237c1.007.581.882,1.6-.28,2.264l-12.418,7.17a4.353,4.353,0,0,1-3.924.162" transform="translate(-139.155 -133.425)" fill="#06033e"></path><path d="M302.779,263.616l-12.531-7.234c-1.007-.581-.882-1.6.28-2.267l12.418-7.168a4.37,4.37,0,0,1,3.924-.164L319.4,254.02c1,.578.879,1.6-.285,2.264l-12.416,7.17a4.353,4.353,0,0,1-3.924.162" transform="translate(-127.332 -126.599)" fill="#06033e"></path><path d="M310.309,267.963l-12.531-7.235c-1.007-.581-.882-1.6.28-2.267l12.416-7.168a4.38,4.38,0,0,1,3.93-.164l12.531,7.237c1,.578.879,1.6-.285,2.264l-12.416,7.17a4.353,4.353,0,0,1-3.924.162" transform="translate(-115.51 -119.774)" fill="#06033e"></path><path d="M317.84,272.311l-12.531-7.235c-1.008-.581-.882-1.6.28-2.267L318,255.642a4.38,4.38,0,0,1,3.93-.164l12.531,7.237c1,.578.879,1.6-.285,2.264l-12.416,7.17a4.353,4.353,0,0,1-3.924.162" transform="translate(-103.687 -112.947)" fill="#06033e"></path><path d="M325.37,276.66l-12.531-7.235c-1.007-.581-.882-1.6.28-2.267l12.416-7.168a4.367,4.367,0,0,1,3.927-.164L342,267.063c1,.578.879,1.6-.285,2.264l-12.416,7.17a4.352,4.352,0,0,1-3.924.162" transform="translate(-91.865 -106.122)" fill="#06033e"></path><path d="M332.9,281.007l-12.531-7.235c-1.007-.581-.882-1.6.28-2.267l12.416-7.168a4.364,4.364,0,0,1,3.93-.164l12.531,7.237c1,.578.879,1.593-.285,2.264l-12.416,7.17a4.369,4.369,0,0,1-3.924.162" transform="translate(-80.042 -99.298)" fill="#06033e"></path><path d="M276.223,239.821l-12.531-7.235c-1.007-.583-.879-1.6.28-2.267l12.418-7.17a4.366,4.366,0,0,1,3.927-.162l12.531,7.235c1,.581.879,1.6-.283,2.267l-12.418,7.17a4.368,4.368,0,0,1-3.924.162" transform="translate(-169.025 -163.96)" fill="#06033e"></path><path d="M268.58,235.408l-12.531-7.235c-1.007-.583-.882-1.6.28-2.267l12.418-7.17a4.361,4.361,0,0,1,3.924-.162l12.534,7.235c1,.581.879,1.6-.283,2.267l-12.418,7.17a4.361,4.361,0,0,1-3.924.162" transform="translate(-181.025 -170.888)" fill="#06033e"></path><path d="M269.757,236.088l-26.99-15.582c-1.007-.581-.879-1.6.283-2.267l12.416-7.168a4.359,4.359,0,0,1,3.927-.164l26.99,15.585c1,.581.879,1.593-.283,2.264l-12.416,7.17a4.366,4.366,0,0,1-3.927.162" transform="translate(-201.876 -182.927)" fill="#06033e"></path><path d="M272,228.918l-21.9-12.644c-1.007-.581-.882-1.6.28-2.267l12.416-7.17a4.366,4.366,0,0,1,3.927-.162l21.9,12.647c1,.581.879,1.593-.283,2.264l-12.418,7.17a4.361,4.361,0,0,1-3.924.162" transform="translate(-190.367 -189.571)" fill="#06033e"></path><path d="M283.753,244.167l-12.531-7.232c-1.007-.583-.882-1.6.28-2.267L283.92,227.5a4.368,4.368,0,0,1,3.924-.159l12.534,7.235c1,.581.879,1.593-.283,2.264l-12.418,7.173a4.368,4.368,0,0,1-3.924.159" transform="translate(-157.203 -157.134)" fill="#06033e"></path><path d="M291.283,248.516l-12.531-7.235c-1.007-.583-.879-1.6.28-2.267l12.418-7.17a4.361,4.361,0,0,1,3.924-.162l12.534,7.235c1,.581.879,1.6-.283,2.264l-12.418,7.173a4.369,4.369,0,0,1-3.924.162" transform="translate(-145.381 -150.309)" fill="#06033e"></path><path d="M298.814,252.865l-12.531-7.235c-1.007-.583-.879-1.6.28-2.267l12.418-7.17a4.37,4.37,0,0,1,3.924-.165l12.534,7.237c1,.581.879,1.6-.283,2.264L302.738,252.7a4.369,4.369,0,0,1-3.924.162" transform="translate(-133.557 -143.483)" fill="#06033e"></path><path d="M306.344,257.213l-12.531-7.235c-1.007-.583-.882-1.6.28-2.267l12.418-7.17a4.369,4.369,0,0,1,3.924-.164l12.531,7.237c1.007.581.882,1.6-.28,2.264l-12.418,7.173a4.369,4.369,0,0,1-3.924.162" transform="translate(-121.735 -136.656)" fill="#06033e"></path><path d="M313.875,261.557l-12.531-7.232c-1.007-.583-.882-1.6.28-2.267l12.416-7.17a4.375,4.375,0,0,1,3.927-.164l12.531,7.237c1,.581.882,1.6-.283,2.264L317.8,261.4a4.361,4.361,0,0,1-3.924.159" transform="translate(-109.912 -129.831)" fill="#06033e"></path><path d="M321.406,265.9l-12.534-7.232c-1.007-.583-.879-1.6.283-2.267l12.416-7.17a4.375,4.375,0,0,1,3.927-.165l12.531,7.237c1,.581.882,1.6-.283,2.264l-12.416,7.173a4.36,4.36,0,0,1-3.924.159" transform="translate(-98.09 -123.005)" fill="#06033e"></path><path d="M328.936,270.25,316.4,263.021c-1.007-.583-.879-1.6.283-2.267l12.416-7.17a4.375,4.375,0,0,1,3.927-.164l12.531,7.237c1,.581.882,1.6-.283,2.264l-12.416,7.173a4.352,4.352,0,0,1-3.924.157" transform="translate(-86.268 -116.179)" fill="#06033e"></path><path d="M336.469,274.6l-12.536-7.232c-1.007-.583-.879-1.6.283-2.269l12.416-7.168a4.375,4.375,0,0,1,3.927-.164L353.089,265c1,.578.882,1.6-.283,2.264l-12.416,7.17a4.348,4.348,0,0,1-3.922.162" transform="translate(-74.446 -109.354)" fill="#06033e"></path><path d="M344,278.948l-12.534-7.235c-1.007-.581-.879-1.6.283-2.267l12.416-7.168a4.375,4.375,0,0,1,3.927-.164l12.531,7.237c1,.578.881,1.6-.283,2.264l-12.416,7.17a4.353,4.353,0,0,1-3.924.162" transform="translate(-62.622 -102.527)" fill="#06033e"></path><path d="M366.43,291.9l-27.345-15.788c-1-.581-.876-1.6.285-2.264l12.416-7.17a4.362,4.362,0,0,1,3.924-.164l27.345,15.79c1,.578.879,1.593-.285,2.264l-12.416,7.17a4.369,4.369,0,0,1-3.924.162" transform="translate(-50.653 -95.618)" fill="#06033e"></path><path d="M378.485,281.932l-23.076-13.325c-1.007-.578-.882-1.593.28-2.264l12.416-7.168a4.367,4.367,0,0,1,3.927-.164l23.079,13.325c1,.581.881,1.6-.283,2.264l-12.418,7.173a4.36,4.36,0,0,1-3.924.159" transform="translate(-25.029 -107.403)" fill="#06033e"></path><path d="M296.939,243.318l-12.531-7.235c-1.007-.583-.879-1.6.283-2.267l12.416-7.17a4.366,4.366,0,0,1,3.927-.162l12.531,7.235c1,.581.879,1.6-.283,2.264l-12.416,7.173a4.374,4.374,0,0,1-3.927.162" transform="translate(-136.499 -158.47)" fill="#06033e"></path><path d="M289.223,238.862l-12.531-7.235c-1.007-.583-.881-1.6.28-2.267l12.418-7.17a4.361,4.361,0,0,1,3.924-.162l12.531,7.235c1.007.581.882,1.6-.28,2.267l-12.418,7.17a4.369,4.369,0,0,1-3.924.162" transform="translate(-148.615 -165.465)" fill="#06033e"></path><path d="M281.5,234.406l-12.531-7.235c-1.008-.583-.879-1.6.28-2.267l12.418-7.17a4.361,4.361,0,0,1,3.924-.162l12.534,7.235c1,.581.879,1.6-.283,2.267l-12.418,7.17a4.369,4.369,0,0,1-3.924.162" transform="translate(-160.732 -172.461)" fill="#06033e"></path><path d="M273.788,229.95l-12.531-7.235c-1.007-.581-.882-1.6.28-2.267l12.418-7.168a4.354,4.354,0,0,1,3.924-.164l12.531,7.237c1.007.578.882,1.593-.28,2.264l-12.418,7.17a4.361,4.361,0,0,1-3.924.162" transform="translate(-172.849 -179.457)" fill="#06033e"></path><path d="M304.469,247.666l-12.531-7.235c-1.007-.583-.879-1.6.283-2.267l12.416-7.17a4.366,4.366,0,0,1,3.927-.162l12.531,7.235c1,.581.881,1.6-.283,2.264L308.394,247.5a4.369,4.369,0,0,1-3.924.162" transform="translate(-124.677 -151.643)" fill="#06033e"></path><path d="M312,252.014l-12.531-7.235c-1.007-.583-.879-1.6.283-2.267l12.416-7.17a4.375,4.375,0,0,1,3.927-.165l12.531,7.237c1,.581.882,1.6-.283,2.264l-12.418,7.173a4.369,4.369,0,0,1-3.924.162" transform="translate(-112.853 -144.819)" fill="#06033e"></path><path d="M319.531,256.359,307,249.127c-1.008-.583-.882-1.6.28-2.267l12.418-7.17a4.375,4.375,0,0,1,3.927-.164l12.531,7.237c1,.581.882,1.6-.283,2.264L323.456,256.2a4.36,4.36,0,0,1-3.924.159" transform="translate(-101.032 -137.992)" fill="#06033e"></path><path d="M327.061,260.707l-12.531-7.232c-1.008-.583-.882-1.6.28-2.267l12.418-7.17a4.375,4.375,0,0,1,3.927-.164l12.531,7.237c1,.581.881,1.6-.283,2.264l-12.418,7.173a4.36,4.36,0,0,1-3.924.159" transform="translate(-89.21 -131.166)" fill="#06033e"></path><path d="M334.593,265.054l-12.531-7.232c-1.007-.583-.884-1.6.278-2.267l12.418-7.17a4.375,4.375,0,0,1,3.927-.164l12.534,7.237c1,.581.879,1.6-.285,2.264l-12.418,7.173a4.355,4.355,0,0,1-3.922.159" transform="translate(-77.387 -124.341)" fill="#06033e"></path><path d="M342.122,269.4l-12.531-7.235c-1.007-.581-.882-1.6.28-2.267l12.418-7.168a4.375,4.375,0,0,1,3.927-.164l12.531,7.237c1,.581.882,1.6-.283,2.264l-12.418,7.173a4.36,4.36,0,0,1-3.924.159" transform="translate(-65.564 -117.515)" fill="#06033e"></path><path d="M349.652,273.749l-12.531-7.232c-1.007-.581-.882-1.6.28-2.267l12.418-7.168a4.359,4.359,0,0,1,3.927-.164l12.531,7.235c1,.581.882,1.6-.283,2.264l-12.418,7.173a4.352,4.352,0,0,1-3.924.159" transform="translate(-53.742 -110.689)" fill="#06033e"></path><path d="M357.182,278.1l-12.531-7.235c-1.007-.581-.882-1.6.28-2.267l12.418-7.168a4.375,4.375,0,0,1,3.927-.164l12.531,7.237c1,.578.882,1.6-.283,2.264l-12.418,7.17a4.353,4.353,0,0,1-3.924.162" transform="translate(-41.919 -103.863)" fill="#06033e"></path><path d="M364.713,282.445l-12.531-7.235c-1.007-.581-.881-1.6.28-2.267l12.418-7.168a4.375,4.375,0,0,1,3.927-.165l12.531,7.237c1,.578.882,1.6-.283,2.264l-12.418,7.17a4.353,4.353,0,0,1-3.924.162" transform="translate(-30.096 -97.037)" fill="#06033e"></path><path d="M292.975,232.564l-12.531-7.235c-1.008-.581-.882-1.6.28-2.267l12.418-7.168a4.354,4.354,0,0,1,3.924-.164l12.534,7.237c1,.581.879,1.593-.283,2.264L296.9,232.4a4.361,4.361,0,0,1-3.924.162" transform="translate(-142.725 -175.353)" fill="#06033e"></path><path d="M285.483,228.238,272.952,221c-1.007-.583-.882-1.6.28-2.267l12.416-7.17a4.366,4.366,0,0,1,3.927-.162l12.531,7.235c1.007.581.881,1.6-.28,2.267l-12.418,7.17a4.369,4.369,0,0,1-3.924.162" transform="translate(-154.487 -182.145)" fill="#06033e"></path><path d="M277.988,223.912l-12.531-7.235c-1.007-.583-.879-1.6.283-2.267l12.416-7.17a4.366,4.366,0,0,1,3.927-.162l12.531,7.235c1,.581.879,1.6-.283,2.267l-12.418,7.17a4.361,4.361,0,0,1-3.924.162" transform="translate(-166.252 -188.937)" fill="#06033e"></path><path d="M270.5,219.586l-12.531-7.235c-1.007-.581-.882-1.6.28-2.267l12.418-7.168a4.354,4.354,0,0,1,3.924-.164l12.534,7.237c1,.581.879,1.593-.283,2.264l-12.418,7.17a4.361,4.361,0,0,1-3.924.162" transform="translate(-178.015 -195.729)" fill="#06033e"></path><path d="M278.2,212.206l-12.531-7.235c-1.007-.583-.879-1.6.283-2.267l4.1-2.37a4.362,4.362,0,0,1,3.924-.164l12.531,7.237c1.007.581.881,1.593-.28,2.267l-4.1,2.37a4.366,4.366,0,0,1-3.927.162" transform="translate(-165.919 -199.78)" fill="#06033e"></path><path d="M287.98,217.851l-12.531-7.235c-1.007-.583-.879-1.6.28-2.267l4.107-2.37a4.362,4.362,0,0,1,3.924-.165l12.531,7.235c1.007.581.881,1.6-.28,2.269l-4.107,2.37a4.361,4.361,0,0,1-3.924.162" transform="translate(-150.567 -190.918)" fill="#06033e"></path><path d="M295.44,222.159l-12.531-7.235c-1.007-.581-.879-1.6.283-2.267l4.1-2.37a4.361,4.361,0,0,1,3.924-.162l12.531,7.235c1.007.581.881,1.6-.28,2.267l-4.1,2.37a4.366,4.366,0,0,1-3.927.162" transform="translate(-138.853 -184.153)" fill="#06033e"></path><path d="M302.9,226.467l-12.531-7.235c-1.007-.583-.881-1.6.28-2.267l4.107-2.37a4.361,4.361,0,0,1,3.924-.164l12.531,7.237c1,.581.881,1.593-.28,2.267l-4.107,2.37a4.361,4.361,0,0,1-3.924.162" transform="translate(-127.138 -177.391)" fill="#06033e"></path><path d="M310.365,230.775l-12.531-7.235c-1.007-.583-.881-1.6.28-2.267l4.1-2.37a4.362,4.362,0,0,1,3.924-.164l12.531,7.235c1.007.581.881,1.6-.28,2.269l-4.1,2.37a4.361,4.361,0,0,1-3.924.162" transform="translate(-115.422 -170.627)" fill="#06033e"></path><path d="M352.021,254.825,339.49,247.59c-1.007-.581-.882-1.6.28-2.267l4.107-2.37a4.37,4.37,0,0,1,3.924-.165l12.531,7.237c1.007.581.882,1.6-.28,2.267l-4.107,2.37a4.353,4.353,0,0,1-3.924.162" transform="translate(-50.022 -132.868)" fill="#06033e"></path><path d="M359.483,259.135,346.952,251.9c-1.007-.583-.882-1.6.28-2.267l4.1-2.372a4.366,4.366,0,0,1,3.927-.162l12.531,7.235c1.007.581.879,1.6-.283,2.267l-4.1,2.372a4.369,4.369,0,0,1-3.924.162" transform="translate(-38.307 -126.104)" fill="#06033e"></path><path d="M366.943,263.442l-12.531-7.235c-1.007-.581-.879-1.6.283-2.267l4.1-2.37a4.362,4.362,0,0,1,3.924-.164l12.531,7.237c1.007.578.882,1.593-.28,2.267l-4.1,2.37a4.374,4.374,0,0,1-3.927.162" transform="translate(-26.592 -119.34)" fill="#06033e"></path><path d="M374.406,267.749l-12.531-7.235c-1.008-.581-.882-1.6.28-2.267l4.107-2.37a4.37,4.37,0,0,1,3.924-.164l12.531,7.237c1.008.581.882,1.6-.28,2.267l-4.107,2.37a4.353,4.353,0,0,1-3.924.162" transform="translate(-14.878 -112.577)" fill="#06033e"></path><path d="M300.506,236.912l-12.531-7.235c-1.007-.583-.882-1.6.28-2.267l12.418-7.168a4.354,4.354,0,0,1,3.924-.164l12.531,7.235c1.007.581.881,1.6-.28,2.267l-12.418,7.17a4.369,4.369,0,0,1-3.924.162" transform="translate(-130.901 -168.527)" fill="#06033e"></path><path d="M308.036,241.259,295.5,234.025c-1.007-.581-.881-1.6.28-2.267l12.418-7.17a4.361,4.361,0,0,1,3.924-.162l12.534,7.237c1,.578.879,1.593-.285,2.264l-12.416,7.17a4.369,4.369,0,0,1-3.924.162" transform="translate(-119.079 -161.702)" fill="#06033e"></path><path d="M315.566,245.607l-12.531-7.235c-1.007-.581-.881-1.6.28-2.267l12.416-7.168a4.359,4.359,0,0,1,3.927-.164l12.534,7.237c1,.578.879,1.593-.285,2.264l-12.416,7.17a4.369,4.369,0,0,1-3.924.162" transform="translate(-107.257 -154.876)" fill="#06033e"></path><path d="M323.1,249.955l-12.531-7.235c-1.007-.581-.881-1.6.28-2.267l12.416-7.168a4.364,4.364,0,0,1,3.93-.164l12.531,7.237c1,.578.879,1.593-.285,2.264l-12.416,7.17a4.369,4.369,0,0,1-3.924.162" transform="translate(-95.435 -148.049)" fill="#06033e"></path><path d="M330.627,254.3,318.1,247.068c-1.007-.581-.882-1.6.28-2.267l12.416-7.168a4.359,4.359,0,0,1,3.927-.164l12.534,7.235c1,.581.879,1.6-.285,2.267l-12.416,7.17a4.369,4.369,0,0,1-3.924.162" transform="translate(-83.611 -141.224)" fill="#06033e"></path><path d="M338.157,258.65l-12.531-7.235c-1.007-.583-.882-1.6.28-2.267l12.416-7.17a4.367,4.367,0,0,1,3.927-.162l12.534,7.235c1,.581.879,1.6-.285,2.264l-12.416,7.173a4.369,4.369,0,0,1-3.924.162" transform="translate(-71.789 -134.398)" fill="#06033e"></path><path d="M345.687,263l-12.531-7.235c-1.007-.583-.882-1.6.28-2.267l12.416-7.17a4.372,4.372,0,0,1,3.93-.162l12.531,7.235c1,.581.879,1.6-.285,2.264l-12.416,7.173a4.369,4.369,0,0,1-3.924.162" transform="translate(-59.967 -127.572)" fill="#06033e"></path><path d="M353.219,267.345l-12.531-7.234c-1.007-.583-.884-1.6.278-2.267l12.418-7.17a4.361,4.361,0,0,1,3.924-.162l12.536,7.235c1,.581.876,1.6-.288,2.264l-12.416,7.173a4.363,4.363,0,0,1-3.922.162" transform="translate(-48.144 -120.747)" fill="#06033e"></path><path d="M360.748,271.694l-12.531-7.235c-1.007-.583-.881-1.6.28-2.267l12.416-7.17a4.375,4.375,0,0,1,3.927-.164l12.534,7.237c1,.581.879,1.6-.285,2.264l-12.416,7.173a4.369,4.369,0,0,1-3.924.162" transform="translate(-36.321 -113.921)" fill="#06033e"></path><path d="M272.345,246.047l-36.908-21.31c-1-.581-.882-1.6.283-2.264l12.416-7.17a4.366,4.366,0,0,1,3.927-.162l36.905,21.308c1.007.581.882,1.6-.28,2.267l-12.418,7.17a4.369,4.369,0,0,1-3.924.162" transform="translate(-213.384 -176.281)" fill="#06033e"></path><path d="M364.855,299.458,327.95,278.15c-1.007-.583-.882-1.6.28-2.267l12.418-7.17a4.361,4.361,0,0,1,3.924-.162l36.908,21.31c1,.578.882,1.593-.283,2.264l-12.418,7.17a4.369,4.369,0,0,1-3.924.162" transform="translate(-68.14 -92.426)" fill="#06033e"></path><path d="M319.85,283.915l-12.531-7.234c-1.008-.583-.882-1.6.28-2.267l14.793-8.543a4.374,4.374,0,0,1,3.927-.162l12.531,7.235c1,.583.879,1.6-.283,2.267l-14.793,8.543a4.369,4.369,0,0,1-3.924.162" transform="translate(-100.531 -96.886)" fill="#06033e"></path><path d="M269.752,254.991l-20.041-11.573c-1.007-.581-.882-1.6.283-2.267l14.79-8.54a4.361,4.361,0,0,1,3.924-.162l20.043,11.57c1,.583.879,1.6-.283,2.267l-14.793,8.543a4.369,4.369,0,0,1-3.924.162" transform="translate(-190.974 -149.105)" fill="#06033e"></path><path d="M317.181,282.373,297.14,270.8c-1-.583-.882-1.6.283-2.267l14.79-8.54a4.375,4.375,0,0,1,3.927-.165L336.181,271.4c1,.581.879,1.6-.283,2.267l-14.793,8.54a4.353,4.353,0,0,1-3.924.162" transform="translate(-116.51 -106.112)" fill="#06033e"></path><path d="M280.618,261.264l-20.041-11.573c-1.007-.581-.882-1.593.28-2.267l14.793-8.538a4.354,4.354,0,0,1,3.924-.164l20.043,11.57c1,.583.879,1.6-.283,2.267L284.542,261.1a4.369,4.369,0,0,1-3.924.162" transform="translate(-173.916 -139.256)" fill="#06033e"></path><path d="M279.213,238.514l87.136,50.308a1.194,1.194,0,0,1,0,2.262l-15.083,8.707a4.328,4.328,0,0,1-3.917,0l-87.136-50.305Z" transform="translate(-173.419 -138.967)" fill="#06033e"></path><path d="M338.969,280.632l13.96,8.06c.822.475.72,1.308-.231,1.856l-6.052,3.5a3.578,3.578,0,0,1-3.218.134l-13.958-8.06c-.827-.475-.725-1.308.231-1.856l6.05-3.5a3.586,3.586,0,0,1,3.218-.134" transform="translate(-65.562 -73.345)" fill="#06033e"></path><path d="M331.376,276.25l13.96,8.06c.825.475.72,1.308-.231,1.856l-6.052,3.5a3.578,3.578,0,0,1-3.218.134l-13.958-8.06c-.828-.478-.722-1.308.231-1.858l6.05-3.493a3.57,3.57,0,0,1,3.218-.134" transform="translate(-77.482 -80.228)" fill="#06033e"></path><path d="M323.846,271.9l13.96,8.06c.825.475.72,1.308-.231,1.856l-6.052,3.5a3.578,3.578,0,0,1-3.218.134l-13.958-8.06c-.828-.478-.722-1.308.231-1.858l6.05-3.493a3.57,3.57,0,0,1,3.218-.134" transform="translate(-89.304 -87.054)" fill="#06033e"></path><path d="M335.535,273.847l13.96,8.062c.825.473.72,1.308-.231,1.856l-6.052,3.5a3.586,3.586,0,0,1-3.218.134l-13.958-8.06c-.828-.478-.722-1.311.231-1.861l6.05-3.493a3.578,3.578,0,0,1,3.218-.134" transform="translate(-70.953 -83.998)" fill="#06033e"></path></g></g><g transform="translate(581.955 513.436)" opacity="0.4"><g clip-path="url(#u)"><path d="M239.652,237.611l-12.531-7.235c-1.007-.581-.882-1.6.28-2.267l14.793-8.54a4.361,4.361,0,0,1,3.924-.162l12.534,7.235c1,.581.879,1.6-.283,2.267l-14.793,8.54a4.353,4.353,0,0,1-3.924.162" transform="translate(-226.442 -169.58)" fill="#06033e"></path><path d="M247.181,241.96l-12.531-7.235c-1.007-.581-.879-1.6.283-2.267l14.79-8.54a4.358,4.358,0,0,1,3.927-.162l12.531,7.235c1,.581.879,1.6-.283,2.267l-14.79,8.54a4.358,4.358,0,0,1-3.927.162" transform="translate(-214.619 -162.755)" fill="#06033e"></path><path d="M254.712,246.307l-12.531-7.235c-1.007-.581-.879-1.6.283-2.267l14.79-8.54a4.358,4.358,0,0,1,3.927-.162l12.531,7.232c1,.583.879,1.6-.283,2.269l-14.79,8.54a4.358,4.358,0,0,1-3.927.162" transform="translate(-202.796 -155.93)" fill="#06033e"></path><path d="M265.128,241.875,252.6,234.646c-1.007-.583-.882-1.6.28-2.267l12.418-7.17a4.361,4.361,0,0,1,3.924-.162l12.534,7.235c1,.581.879,1.6-.283,2.264l-12.418,7.173a4.352,4.352,0,0,1-3.924.157" transform="translate(-186.445 -160.727)" fill="#06033e"></path><path d="M272.658,246.225l-12.531-7.232c-1.007-.583-.881-1.6.28-2.267l12.418-7.17a4.37,4.37,0,0,1,3.924-.164l12.531,7.237c1.007.581.882,1.6-.28,2.264l-12.418,7.173a4.361,4.361,0,0,1-3.924.159" transform="translate(-174.623 -153.903)" fill="#06033e"></path><path d="M280.188,250.573l-12.531-7.232c-1.007-.583-.881-1.6.28-2.269l12.418-7.168a4.37,4.37,0,0,1,3.924-.164l12.534,7.237c1,.581.879,1.6-.283,2.264l-12.418,7.173a4.36,4.36,0,0,1-3.924.159" transform="translate(-162.801 -147.076)" fill="#06033e"></path><path d="M287.718,254.92l-12.531-7.232c-1.007-.583-.881-1.6.28-2.269l12.418-7.168a4.37,4.37,0,0,1,3.924-.164l12.534,7.237c1,.578.879,1.6-.283,2.264l-12.418,7.17a4.353,4.353,0,0,1-3.924.162" transform="translate(-150.978 -140.252)" fill="#06033e"></path><path d="M295.249,259.268l-12.531-7.235c-1.007-.581-.881-1.6.28-2.267l12.418-7.168a4.37,4.37,0,0,1,3.924-.164l12.531,7.237c1.007.581.882,1.6-.28,2.264l-12.418,7.17a4.353,4.353,0,0,1-3.924.162" transform="translate(-139.155 -133.425)" fill="#06033e"></path><path d="M302.779,263.616l-12.531-7.234c-1.007-.581-.882-1.6.28-2.267l12.418-7.168a4.37,4.37,0,0,1,3.924-.164L319.4,254.02c1,.578.879,1.6-.285,2.264l-12.416,7.17a4.353,4.353,0,0,1-3.924.162" transform="translate(-127.332 -126.599)" fill="#06033e"></path><path d="M310.309,267.963l-12.531-7.235c-1.007-.581-.882-1.6.28-2.267l12.416-7.168a4.38,4.38,0,0,1,3.93-.164l12.531,7.237c1,.578.879,1.6-.285,2.264l-12.416,7.17a4.353,4.353,0,0,1-3.924.162" transform="translate(-115.51 -119.774)" fill="#06033e"></path><path d="M317.84,272.311l-12.531-7.235c-1.008-.581-.882-1.6.28-2.267L318,255.642a4.38,4.38,0,0,1,3.93-.164l12.531,7.237c1,.578.879,1.6-.285,2.264l-12.416,7.17a4.353,4.353,0,0,1-3.924.162" transform="translate(-103.687 -112.947)" fill="#06033e"></path><path d="M325.37,276.66l-12.531-7.235c-1.007-.581-.882-1.6.28-2.267l12.416-7.168a4.367,4.367,0,0,1,3.927-.164L342,267.063c1,.578.879,1.6-.285,2.264l-12.416,7.17a4.352,4.352,0,0,1-3.924.162" transform="translate(-91.865 -106.122)" fill="#06033e"></path><path d="M332.9,281.007l-12.531-7.235c-1.007-.581-.882-1.6.28-2.267l12.416-7.168a4.364,4.364,0,0,1,3.93-.164l12.531,7.237c1,.578.879,1.593-.285,2.264l-12.416,7.17a4.369,4.369,0,0,1-3.924.162" transform="translate(-80.042 -99.298)" fill="#06033e"></path><path d="M276.223,239.821l-12.531-7.235c-1.007-.583-.879-1.6.28-2.267l12.418-7.17a4.366,4.366,0,0,1,3.927-.162l12.531,7.235c1,.581.879,1.6-.283,2.267l-12.418,7.17a4.368,4.368,0,0,1-3.924.162" transform="translate(-169.025 -163.96)" fill="#06033e"></path><path d="M268.58,235.408l-12.531-7.235c-1.007-.583-.882-1.6.28-2.267l12.418-7.17a4.361,4.361,0,0,1,3.924-.162l12.534,7.235c1,.581.879,1.6-.283,2.267l-12.418,7.17a4.361,4.361,0,0,1-3.924.162" transform="translate(-181.025 -170.888)" fill="#06033e"></path><path d="M269.757,236.088l-26.99-15.582c-1.007-.581-.879-1.6.283-2.267l12.416-7.168a4.359,4.359,0,0,1,3.927-.164l26.99,15.585c1,.581.879,1.593-.283,2.264l-12.416,7.17a4.366,4.366,0,0,1-3.927.162" transform="translate(-201.876 -182.927)" fill="#06033e"></path><path d="M272,228.918l-21.9-12.644c-1.007-.581-.882-1.6.28-2.267l12.416-7.17a4.366,4.366,0,0,1,3.927-.162l21.9,12.647c1,.581.879,1.593-.283,2.264l-12.418,7.17a4.361,4.361,0,0,1-3.924.162" transform="translate(-190.367 -189.571)" fill="#06033e"></path><path d="M283.753,244.167l-12.531-7.232c-1.007-.583-.882-1.6.28-2.267L283.92,227.5a4.368,4.368,0,0,1,3.924-.159l12.534,7.235c1,.581.879,1.593-.283,2.264l-12.418,7.173a4.368,4.368,0,0,1-3.924.159" transform="translate(-157.203 -157.134)" fill="#06033e"></path><path d="M291.283,248.516l-12.531-7.235c-1.007-.583-.879-1.6.28-2.267l12.418-7.17a4.361,4.361,0,0,1,3.924-.162l12.534,7.235c1,.581.879,1.6-.283,2.264l-12.418,7.173a4.369,4.369,0,0,1-3.924.162" transform="translate(-145.381 -150.309)" fill="#06033e"></path><path d="M298.814,252.865l-12.531-7.235c-1.007-.583-.879-1.6.28-2.267l12.418-7.17a4.37,4.37,0,0,1,3.924-.165l12.534,7.237c1,.581.879,1.6-.283,2.264L302.738,252.7a4.369,4.369,0,0,1-3.924.162" transform="translate(-133.557 -143.483)" fill="#06033e"></path><path d="M306.344,257.213l-12.531-7.235c-1.007-.583-.882-1.6.28-2.267l12.418-7.17a4.369,4.369,0,0,1,3.924-.164l12.531,7.237c1.007.581.882,1.6-.28,2.264l-12.418,7.173a4.369,4.369,0,0,1-3.924.162" transform="translate(-121.735 -136.656)" fill="#06033e"></path><path d="M313.875,261.557l-12.531-7.232c-1.007-.583-.882-1.6.28-2.267l12.416-7.17a4.375,4.375,0,0,1,3.927-.164l12.531,7.237c1,.581.882,1.6-.283,2.264L317.8,261.4a4.361,4.361,0,0,1-3.924.159" transform="translate(-109.912 -129.831)" fill="#06033e"></path><path d="M321.406,265.9l-12.534-7.232c-1.007-.583-.879-1.6.283-2.267l12.416-7.17a4.375,4.375,0,0,1,3.927-.165l12.531,7.237c1,.581.882,1.6-.283,2.264l-12.416,7.173a4.36,4.36,0,0,1-3.924.159" transform="translate(-98.09 -123.005)" fill="#06033e"></path><path d="M328.936,270.25,316.4,263.021c-1.007-.583-.879-1.6.283-2.267l12.416-7.17a4.375,4.375,0,0,1,3.927-.164l12.531,7.237c1,.581.882,1.6-.283,2.264l-12.416,7.173a4.352,4.352,0,0,1-3.924.157" transform="translate(-86.268 -116.179)" fill="#06033e"></path><path d="M336.469,274.6l-12.536-7.232c-1.007-.583-.879-1.6.283-2.269l12.416-7.168a4.375,4.375,0,0,1,3.927-.164L353.089,265c1,.578.882,1.6-.283,2.264l-12.416,7.17a4.348,4.348,0,0,1-3.922.162" transform="translate(-74.446 -109.354)" fill="#06033e"></path><path d="M344,278.948l-12.534-7.235c-1.007-.581-.879-1.6.283-2.267l12.416-7.168a4.375,4.375,0,0,1,3.927-.164l12.531,7.237c1,.578.881,1.6-.283,2.264l-12.416,7.17a4.353,4.353,0,0,1-3.924.162" transform="translate(-62.622 -102.527)" fill="#06033e"></path><path d="M366.43,291.9l-27.345-15.788c-1-.581-.876-1.6.285-2.264l12.416-7.17a4.362,4.362,0,0,1,3.924-.164l27.345,15.79c1,.578.879,1.593-.285,2.264l-12.416,7.17a4.369,4.369,0,0,1-3.924.162" transform="translate(-50.653 -95.618)" fill="#06033e"></path><path d="M378.485,281.932l-23.076-13.325c-1.007-.578-.882-1.593.28-2.264l12.416-7.168a4.367,4.367,0,0,1,3.927-.164l23.079,13.325c1,.581.881,1.6-.283,2.264l-12.418,7.173a4.36,4.36,0,0,1-3.924.159" transform="translate(-25.029 -107.403)" fill="#06033e"></path><path d="M296.939,243.318l-12.531-7.235c-1.007-.583-.879-1.6.283-2.267l12.416-7.17a4.366,4.366,0,0,1,3.927-.162l12.531,7.235c1,.581.879,1.6-.283,2.264l-12.416,7.173a4.374,4.374,0,0,1-3.927.162" transform="translate(-136.499 -158.47)" fill="#06033e"></path><path d="M289.223,238.862l-12.531-7.235c-1.007-.583-.881-1.6.28-2.267l12.418-7.17a4.361,4.361,0,0,1,3.924-.162l12.531,7.235c1.007.581.882,1.6-.28,2.267l-12.418,7.17a4.369,4.369,0,0,1-3.924.162" transform="translate(-148.615 -165.465)" fill="#06033e"></path><path d="M281.5,234.406l-12.531-7.235c-1.008-.583-.879-1.6.28-2.267l12.418-7.17a4.361,4.361,0,0,1,3.924-.162l12.534,7.235c1,.581.879,1.6-.283,2.267l-12.418,7.17a4.369,4.369,0,0,1-3.924.162" transform="translate(-160.732 -172.461)" fill="#06033e"></path><path d="M273.788,229.95l-12.531-7.235c-1.007-.581-.882-1.6.28-2.267l12.418-7.168a4.354,4.354,0,0,1,3.924-.164l12.531,7.237c1.007.578.882,1.593-.28,2.264l-12.418,7.17a4.361,4.361,0,0,1-3.924.162" transform="translate(-172.849 -179.457)" fill="#06033e"></path><path d="M304.469,247.666l-12.531-7.235c-1.007-.583-.879-1.6.283-2.267l12.416-7.17a4.366,4.366,0,0,1,3.927-.162l12.531,7.235c1,.581.881,1.6-.283,2.264L308.394,247.5a4.369,4.369,0,0,1-3.924.162" transform="translate(-124.677 -151.643)" fill="#06033e"></path><path d="M312,252.014l-12.531-7.235c-1.007-.583-.879-1.6.283-2.267l12.416-7.17a4.375,4.375,0,0,1,3.927-.165l12.531,7.237c1,.581.882,1.6-.283,2.264l-12.418,7.173a4.369,4.369,0,0,1-3.924.162" transform="translate(-112.853 -144.819)" fill="#06033e"></path><path d="M319.531,256.359,307,249.127c-1.008-.583-.882-1.6.28-2.267l12.418-7.17a4.375,4.375,0,0,1,3.927-.164l12.531,7.237c1,.581.882,1.6-.283,2.264L323.456,256.2a4.36,4.36,0,0,1-3.924.159" transform="translate(-101.032 -137.992)" fill="#06033e"></path><path d="M327.061,260.707l-12.531-7.232c-1.008-.583-.882-1.6.28-2.267l12.418-7.17a4.375,4.375,0,0,1,3.927-.164l12.531,7.237c1,.581.881,1.6-.283,2.264l-12.418,7.173a4.36,4.36,0,0,1-3.924.159" transform="translate(-89.21 -131.166)" fill="#06033e"></path><path d="M334.593,265.054l-12.531-7.232c-1.007-.583-.884-1.6.278-2.267l12.418-7.17a4.375,4.375,0,0,1,3.927-.164l12.534,7.237c1,.581.879,1.6-.285,2.264l-12.418,7.173a4.355,4.355,0,0,1-3.922.159" transform="translate(-77.387 -124.341)" fill="#06033e"></path><path d="M342.122,269.4l-12.531-7.235c-1.007-.581-.882-1.6.28-2.267l12.418-7.168a4.375,4.375,0,0,1,3.927-.164l12.531,7.237c1,.581.882,1.6-.283,2.264l-12.418,7.173a4.36,4.36,0,0,1-3.924.159" transform="translate(-65.564 -117.515)" fill="#06033e"></path><path d="M349.652,273.749l-12.531-7.232c-1.007-.581-.882-1.6.28-2.267l12.418-7.168a4.359,4.359,0,0,1,3.927-.164l12.531,7.235c1,.581.882,1.6-.283,2.264l-12.418,7.173a4.352,4.352,0,0,1-3.924.159" transform="translate(-53.742 -110.689)" fill="#06033e"></path><path d="M357.182,278.1l-12.531-7.235c-1.007-.581-.882-1.6.28-2.267l12.418-7.168a4.375,4.375,0,0,1,3.927-.164l12.531,7.237c1,.578.882,1.6-.283,2.264l-12.418,7.17a4.353,4.353,0,0,1-3.924.162" transform="translate(-41.919 -103.863)" fill="#06033e"></path><path d="M364.713,282.445l-12.531-7.235c-1.007-.581-.881-1.6.28-2.267l12.418-7.168a4.375,4.375,0,0,1,3.927-.165l12.531,7.237c1,.578.882,1.6-.283,2.264l-12.418,7.17a4.353,4.353,0,0,1-3.924.162" transform="translate(-30.096 -97.037)" fill="#06033e"></path><path d="M292.975,232.564l-12.531-7.235c-1.008-.581-.882-1.6.28-2.267l12.418-7.168a4.354,4.354,0,0,1,3.924-.164l12.534,7.237c1,.581.879,1.593-.283,2.264L296.9,232.4a4.361,4.361,0,0,1-3.924.162" transform="translate(-142.725 -175.353)" fill="#06033e"></path><path d="M285.483,228.238,272.952,221c-1.007-.583-.882-1.6.28-2.267l12.416-7.17a4.366,4.366,0,0,1,3.927-.162l12.531,7.235c1.007.581.881,1.6-.28,2.267l-12.418,7.17a4.369,4.369,0,0,1-3.924.162" transform="translate(-154.487 -182.145)" fill="#06033e"></path><path d="M277.988,223.912l-12.531-7.235c-1.007-.583-.879-1.6.283-2.267l12.416-7.17a4.366,4.366,0,0,1,3.927-.162l12.531,7.235c1,.581.879,1.6-.283,2.267l-12.418,7.17a4.361,4.361,0,0,1-3.924.162" transform="translate(-166.252 -188.937)" fill="#06033e"></path><path d="M270.5,219.586l-12.531-7.235c-1.007-.581-.882-1.6.28-2.267l12.418-7.168a4.354,4.354,0,0,1,3.924-.164l12.534,7.237c1,.581.879,1.593-.283,2.264l-12.418,7.17a4.361,4.361,0,0,1-3.924.162" transform="translate(-178.015 -195.729)" fill="#06033e"></path><path d="M278.2,212.206l-12.531-7.235c-1.007-.583-.879-1.6.283-2.267l4.1-2.37a4.362,4.362,0,0,1,3.924-.164l12.531,7.237c1.007.581.881,1.593-.28,2.267l-4.1,2.37a4.366,4.366,0,0,1-3.927.162" transform="translate(-165.919 -199.78)" fill="#06033e"></path><path d="M287.98,217.851l-12.531-7.235c-1.007-.583-.879-1.6.28-2.267l4.107-2.37a4.362,4.362,0,0,1,3.924-.165l12.531,7.235c1.007.581.881,1.6-.28,2.269l-4.107,2.37a4.361,4.361,0,0,1-3.924.162" transform="translate(-150.567 -190.918)" fill="#06033e"></path><path d="M295.44,222.159l-12.531-7.235c-1.007-.581-.879-1.6.283-2.267l4.1-2.37a4.361,4.361,0,0,1,3.924-.162l12.531,7.235c1.007.581.881,1.6-.28,2.267l-4.1,2.37a4.366,4.366,0,0,1-3.927.162" transform="translate(-138.853 -184.153)" fill="#06033e"></path><path d="M302.9,226.467l-12.531-7.235c-1.007-.583-.881-1.6.28-2.267l4.107-2.37a4.361,4.361,0,0,1,3.924-.164l12.531,7.237c1,.581.881,1.593-.28,2.267l-4.107,2.37a4.361,4.361,0,0,1-3.924.162" transform="translate(-127.138 -177.391)" fill="#06033e"></path><path d="M310.365,230.775l-12.531-7.235c-1.007-.583-.881-1.6.28-2.267l4.1-2.37a4.362,4.362,0,0,1,3.924-.164l12.531,7.235c1.007.581.881,1.6-.28,2.269l-4.1,2.37a4.361,4.361,0,0,1-3.924.162" transform="translate(-115.422 -170.627)" fill="#06033e"></path><path d="M352.021,254.825,339.49,247.59c-1.007-.581-.882-1.6.28-2.267l4.107-2.37a4.37,4.37,0,0,1,3.924-.165l12.531,7.237c1.007.581.882,1.6-.28,2.267l-4.107,2.37a4.353,4.353,0,0,1-3.924.162" transform="translate(-50.022 -132.868)" fill="#06033e"></path><path d="M359.483,259.135,346.952,251.9c-1.007-.583-.882-1.6.28-2.267l4.1-2.372a4.366,4.366,0,0,1,3.927-.162l12.531,7.235c1.007.581.879,1.6-.283,2.267l-4.1,2.372a4.369,4.369,0,0,1-3.924.162" transform="translate(-38.307 -126.104)" fill="#06033e"></path><path d="M366.943,263.442l-12.531-7.235c-1.007-.581-.879-1.6.283-2.267l4.1-2.37a4.362,4.362,0,0,1,3.924-.164l12.531,7.237c1.007.578.882,1.593-.28,2.267l-4.1,2.37a4.374,4.374,0,0,1-3.927.162" transform="translate(-26.592 -119.34)" fill="#06033e"></path><path d="M374.406,267.749l-12.531-7.235c-1.008-.581-.882-1.6.28-2.267l4.107-2.37a4.37,4.37,0,0,1,3.924-.164l12.531,7.237c1.008.581.882,1.6-.28,2.267l-4.107,2.37a4.353,4.353,0,0,1-3.924.162" transform="translate(-14.878 -112.577)" fill="#06033e"></path><path d="M300.506,236.912l-12.531-7.235c-1.007-.583-.882-1.6.28-2.267l12.418-7.168a4.354,4.354,0,0,1,3.924-.164l12.531,7.235c1.007.581.881,1.6-.28,2.267l-12.418,7.17a4.369,4.369,0,0,1-3.924.162" transform="translate(-130.901 -168.527)" fill="#06033e"></path><path d="M308.036,241.259,295.5,234.025c-1.007-.581-.881-1.6.28-2.267l12.418-7.17a4.361,4.361,0,0,1,3.924-.162l12.534,7.237c1,.578.879,1.593-.285,2.264l-12.416,7.17a4.369,4.369,0,0,1-3.924.162" transform="translate(-119.079 -161.702)" fill="#06033e"></path><path d="M315.566,245.607l-12.531-7.235c-1.007-.581-.881-1.6.28-2.267l12.416-7.168a4.359,4.359,0,0,1,3.927-.164l12.534,7.237c1,.578.879,1.593-.285,2.264l-12.416,7.17a4.369,4.369,0,0,1-3.924.162" transform="translate(-107.257 -154.876)" fill="#06033e"></path><path d="M323.1,249.955l-12.531-7.235c-1.007-.581-.881-1.6.28-2.267l12.416-7.168a4.364,4.364,0,0,1,3.93-.164l12.531,7.237c1,.578.879,1.593-.285,2.264l-12.416,7.17a4.369,4.369,0,0,1-3.924.162" transform="translate(-95.435 -148.049)" fill="#06033e"></path><path d="M330.627,254.3,318.1,247.068c-1.007-.581-.882-1.6.28-2.267l12.416-7.168a4.359,4.359,0,0,1,3.927-.164l12.534,7.235c1,.581.879,1.6-.285,2.267l-12.416,7.17a4.369,4.369,0,0,1-3.924.162" transform="translate(-83.611 -141.224)" fill="#06033e"></path><path d="M338.157,258.65l-12.531-7.235c-1.007-.583-.882-1.6.28-2.267l12.416-7.17a4.367,4.367,0,0,1,3.927-.162l12.534,7.235c1,.581.879,1.6-.285,2.264l-12.416,7.173a4.369,4.369,0,0,1-3.924.162" transform="translate(-71.789 -134.398)" fill="#06033e"></path><path d="M345.687,263l-12.531-7.235c-1.007-.583-.882-1.6.28-2.267l12.416-7.17a4.372,4.372,0,0,1,3.93-.162l12.531,7.235c1,.581.879,1.6-.285,2.264l-12.416,7.173a4.369,4.369,0,0,1-3.924.162" transform="translate(-59.967 -127.572)" fill="#06033e"></path><path d="M353.219,267.345l-12.531-7.234c-1.007-.583-.884-1.6.278-2.267l12.418-7.17a4.361,4.361,0,0,1,3.924-.162l12.536,7.235c1,.581.876,1.6-.288,2.264l-12.416,7.173a4.363,4.363,0,0,1-3.922.162" transform="translate(-48.144 -120.747)" fill="#06033e"></path><path d="M360.748,271.694l-12.531-7.235c-1.007-.583-.881-1.6.28-2.267l12.416-7.17a4.375,4.375,0,0,1,3.927-.164l12.534,7.237c1,.581.879,1.6-.285,2.264l-12.416,7.173a4.369,4.369,0,0,1-3.924.162" transform="translate(-36.321 -113.921)" fill="#06033e"></path><path d="M272.345,246.047l-36.908-21.31c-1-.581-.882-1.6.283-2.264l12.416-7.17a4.366,4.366,0,0,1,3.927-.162l36.905,21.308c1.007.581.882,1.6-.28,2.267l-12.418,7.17a4.369,4.369,0,0,1-3.924.162" transform="translate(-213.384 -176.281)" fill="#06033e"></path><path d="M364.855,299.458,327.95,278.15c-1.007-.583-.882-1.6.28-2.267l12.418-7.17a4.361,4.361,0,0,1,3.924-.162l36.908,21.31c1,.578.882,1.593-.283,2.264l-12.418,7.17a4.369,4.369,0,0,1-3.924.162" transform="translate(-68.14 -92.426)" fill="#06033e"></path><path d="M319.85,283.915l-12.531-7.234c-1.008-.583-.882-1.6.28-2.267l14.793-8.543a4.374,4.374,0,0,1,3.927-.162l12.531,7.235c1,.583.879,1.6-.283,2.267l-14.793,8.543a4.369,4.369,0,0,1-3.924.162" transform="translate(-100.531 -96.886)" fill="#06033e"></path><path d="M269.752,254.991l-20.041-11.573c-1.007-.581-.882-1.6.283-2.267l14.79-8.54a4.361,4.361,0,0,1,3.924-.162l20.043,11.57c1,.583.879,1.6-.283,2.267l-14.793,8.543a4.369,4.369,0,0,1-3.924.162" transform="translate(-190.974 -149.105)" fill="#06033e"></path><path d="M317.181,282.373,297.14,270.8c-1-.583-.882-1.6.283-2.267l14.79-8.54a4.375,4.375,0,0,1,3.927-.165L336.181,271.4c1,.581.879,1.6-.283,2.267l-14.793,8.54a4.353,4.353,0,0,1-3.924.162" transform="translate(-116.51 -106.112)" fill="#06033e"></path><path d="M280.618,261.264l-20.041-11.573c-1.007-.581-.882-1.593.28-2.267l14.793-8.538a4.354,4.354,0,0,1,3.924-.164l20.043,11.57c1,.583.879,1.6-.283,2.267L284.542,261.1a4.369,4.369,0,0,1-3.924.162" transform="translate(-173.916 -139.256)" fill="#06033e"></path><path d="M279.213,238.514l87.136,50.308a1.194,1.194,0,0,1,0,2.262l-15.083,8.707a4.328,4.328,0,0,1-3.917,0l-87.136-50.305Z" transform="translate(-173.419 -138.967)" fill="#06033e"></path><path d="M338.969,280.632l13.96,8.06c.822.475.72,1.308-.231,1.856l-6.052,3.5a3.578,3.578,0,0,1-3.218.134l-13.958-8.06c-.827-.475-.725-1.308.231-1.856l6.05-3.5a3.586,3.586,0,0,1,3.218-.134" transform="translate(-65.562 -73.345)" fill="#06033e"></path><path d="M331.376,276.25l13.96,8.06c.825.475.72,1.308-.231,1.856l-6.052,3.5a3.578,3.578,0,0,1-3.218.134l-13.958-8.06c-.828-.478-.722-1.308.231-1.858l6.05-3.493a3.57,3.57,0,0,1,3.218-.134" transform="translate(-77.482 -80.228)" fill="#06033e"></path><path d="M323.846,271.9l13.96,8.06c.825.475.72,1.308-.231,1.856l-6.052,3.5a3.578,3.578,0,0,1-3.218.134l-13.958-8.06c-.828-.478-.722-1.308.231-1.858l6.05-3.493a3.57,3.57,0,0,1,3.218-.134" transform="translate(-89.304 -87.054)" fill="#06033e"></path><path d="M335.535,273.847l13.96,8.062c.825.473.72,1.308-.231,1.856l-6.052,3.5a3.586,3.586,0,0,1-3.218.134l-13.958-8.06c-.828-.478-.722-1.311.231-1.861l6.05-3.493a3.578,3.578,0,0,1,3.218-.134" transform="translate(-70.953 -83.998)" fill="#06033e"></path></g></g></g><g transform="translate(674.201 169.934)"><g clip-path="url(#w)"><rect width="478.53" height="514.104" transform="translate(-1.42 0)" fill="url(#x)"></rect></g></g><g transform="translate(682.145 179.728)"><g clip-path="url(#y)"><rect width="462.663" height="494.662" transform="translate(-1.358 0)" fill="url(#z)"></rect></g></g><g clip-path="url(#c)"><g transform="translate(682.146 179.728)" opacity="0.4"><g clip-path="url(#ab)"><path d="M631.148,561.38,272.534,354.163c-5.564-3.212-8.468-11.041-6.487-17.484L345.985,77.155c1.982-6.443,8.1-9.062,13.662-5.849L718.26,278.522c5.567,3.212,8.468,11.038,6.487,17.481L644.81,555.531c-1.982,6.44-8.1,9.062-13.662,5.849" transform="translate(-265.428 -69.933)" fill="#06033e"></path></g></g><g transform="translate(682.146 179.728)" opacity="0.4"><g clip-path="url(#ab)"><path d="M631.148,561.38,272.534,354.163c-5.564-3.212-8.468-11.041-6.487-17.484L345.985,77.155c1.982-6.443,8.1-9.062,13.662-5.849L718.26,278.522c5.567,3.212,8.468,11.038,6.487,17.481L644.81,555.531c-1.982,6.44-8.1,9.062-13.662,5.849" transform="translate(-265.428 -69.933)" fill="#06033e"></path></g></g><g transform="translate(780.96 256.507)" opacity="0.5"><g clip-path="url(#ad)"><path d="M551.515,435.165,308.752,295.008c-3.816-2.205-5.811-7.574-4.449-12l54.9-178.248c1.36-4.42,5.556-6.217,9.373-4.014l242.763,140.16c3.819,2.2,5.811,7.574,4.451,11.994l-54.9,178.248c-1.36,4.42-5.556,6.217-9.373,4.014" transform="translate(-303.875 -99.808)" fill="#06033e"></path></g></g></g><g transform="translate(748.161 260.809)"><g clip-path="url(#ae)"><rect width="314.206" height="337.56" transform="translate(-0.932 0)" fill="url(#af)"></rect></g></g><g clip-path="url(#c)"><g transform="translate(748.162 260.809)" opacity="0.5"><g clip-path="url(#ah)"><path d="M538.754,436.84,295.991,296.682c-3.819-2.205-5.811-7.574-4.451-11.994l54.9-178.25c1.36-4.42,5.556-6.217,9.373-4.014l242.763,140.16c3.819,2.2,5.811,7.574,4.451,11.994l-54.9,178.248c-1.36,4.423-5.556,6.217-9.373,4.014" transform="translate(-291.113 -101.482)" fill="#06033e"></path></g></g><path d="M563.224,242.583,320.461,102.423a6.044,6.044,0,0,0-6.831.234,6.568,6.568,0,0,1,3.505.9L559.9,243.714c3.816,2.2,5.811,7.574,4.449,11.994l-54.9,178.25a7.366,7.366,0,0,1-2.544,3.78,6.426,6.426,0,0,0,5.87-4.914l54.9-178.248c1.362-4.42-.632-9.792-4.449-11.994" transform="translate(492.401 159.327)" fill="#fff"></path><g transform="translate(579.367 638.238)" opacity="0.4"><g clip-path="url(#ai)"><path d="M335.687,351.828a18.265,18.265,0,0,1-9-2.107v0L229.43,293.568c-2.578-1.491-4-3.616-4-5.993,0-2.755,1.956-5.466,5.364-7.432l50.064-28.907c6.119-3.531,15.1-3.876,20.449-.789L398.573,306.6c2.578,1.491,4,3.619,4,6,0,2.755-1.956,5.464-5.364,7.432l-50.069,28.907a23.457,23.457,0,0,1-11.452,2.894M292.362,251.181a20.853,20.853,0,0,0-10.095,2.488l-50.064,28.9c-2.519,1.452-3.963,3.277-3.963,5,0,1.7,1.411,2.876,2.6,3.559L328.1,347.289c4.413,2.544,12.488,2.187,17.638-.789L395.8,317.6c2.519-1.455,3.96-3.277,3.96-5,0-1.707-1.411-2.879-2.6-3.56L299.908,252.88a15.459,15.459,0,0,0-7.546-1.7" transform="translate(-225.434 -248.341)" fill="#06033e"></path></g></g><path d="M349.57,147.239l-15.009-8.666a3.911,3.911,0,0,1-1.668-4.315,2.22,2.22,0,0,1,3.372-1.406l15.011,8.666a3.914,3.914,0,0,1,1.665,4.315,2.221,2.221,0,0,1-3.372,1.406" transform="translate(522.422 208.029)" fill="#fff"></path><path d="M367.83,157.78,345.7,145a3.919,3.919,0,0,1-1.668-4.315,2.222,2.222,0,0,1,3.374-1.4l22.13,12.775a3.917,3.917,0,0,1,1.668,4.318,2.223,2.223,0,0,1-3.374,1.4" transform="translate(539.911 218.127)" fill="#fff"></path><path d="M337.794,173.237l-15.009-8.666a3.911,3.911,0,0,1-1.668-4.315,2.223,2.223,0,0,1,3.374-1.406l15.009,8.666a3.916,3.916,0,0,1,1.665,4.318,2.22,2.22,0,0,1-3.372,1.4" transform="translate(503.932 248.848)" fill="#fff"></path><path d="M354.542,182.908,332.415,170.13a3.913,3.913,0,0,1-1.671-4.315,2.223,2.223,0,0,1,3.377-1.4l22.128,12.776a3.913,3.913,0,0,1,1.668,4.318,2.222,2.222,0,0,1-3.374,1.4" transform="translate(519.049 257.578)" fill="#fff"></path><path d="M328.634,140.618l-9.373-5.412a3.919,3.919,0,0,1-1.67-4.318,2.223,2.223,0,0,1,3.374-1.4l9.375,5.412a3.911,3.911,0,0,1,1.668,4.315,2.223,2.223,0,0,1-3.374,1.406" transform="translate(498.399 202.742)" fill="#fff"></path><path d="M351.385,159.219l-28.645-16.541a3.915,3.915,0,0,1-1.671-4.315,2.224,2.224,0,0,1,3.377-1.4L353.091,153.5a3.91,3.91,0,0,1,1.665,4.315,2.22,2.22,0,0,1-3.372,1.406" transform="translate(503.859 214.478)" fill="#fff"></path><path d="M329.332,157.419l-9.375-5.412a3.922,3.922,0,0,1-1.671-4.318,2.225,2.225,0,0,1,3.377-1.4l9.375,5.412a3.916,3.916,0,0,1,1.665,4.318,2.221,2.221,0,0,1-3.372,1.4" transform="translate(499.492 229.12)" fill="#fff"></path><path d="M357.666,195.644l-25.042-14.459a3.916,3.916,0,0,1-1.668-4.315,2.224,2.224,0,0,1,3.374-1.406l25.042,14.459a3.917,3.917,0,0,1,1.668,4.318,2.223,2.223,0,0,1-3.374,1.4" transform="translate(519.382 274.934)" fill="#fff"></path><path d="M323.193,164.808l-6.019-3.475a3.911,3.911,0,0,1-1.668-4.315,2.222,2.222,0,0,1,3.374-1.406l6.019,3.475a3.916,3.916,0,0,1,1.665,4.318,2.22,2.22,0,0,1-3.372,1.4" transform="translate(495.123 243.764)" fill="#fff"></path><path d="M321.866,174.975l-7.474-4.315a3.916,3.916,0,0,1-1.671-4.315,2.224,2.224,0,0,1,3.377-1.406l7.471,4.315a3.914,3.914,0,0,1,1.668,4.318,2.221,2.221,0,0,1-3.372,1.4" transform="translate(490.754 258.405)" fill="#fff"></path><path d="M340.648,185.82l-19.7-11.377a3.909,3.909,0,0,1-1.665-4.315,2.218,2.218,0,0,1,3.372-1.4l19.7,11.375a3.917,3.917,0,0,1,1.668,4.318,2.223,2.223,0,0,1-3.374,1.4" transform="translate(501.046 264.348)" fill="#fff"></path><path d="M327.167,183.5,313,175.321a3.915,3.915,0,0,1-1.668-4.315,2.221,2.221,0,0,1,3.374-1.4l14.168,8.178a3.912,3.912,0,0,1,1.665,4.318,2.219,2.219,0,0,1-3.372,1.4" transform="translate(488.57 265.728)" fill="#fff"></path><path d="M356.285,194.872l-9.1-5.253a3.914,3.914,0,0,1-1.668-4.315,2.222,2.222,0,0,1,3.374-1.406l9.1,5.253a3.917,3.917,0,0,1,1.668,4.318,2.222,2.222,0,0,1-3.374,1.4" transform="translate(542.246 288.171)" fill="#fff"></path><path d="M352.473,170.779l-25.042-14.456a3.922,3.922,0,0,1-1.671-4.318,2.225,2.225,0,0,1,3.377-1.4l25.039,14.456a3.914,3.914,0,0,1,1.668,4.318,2.22,2.22,0,0,1-3.372,1.4" transform="translate(511.226 235.896)" fill="#fff"></path><path d="M364.991,172.542l-43.641-25.2a3.916,3.916,0,0,1-1.671-4.315,2.224,2.224,0,0,1,3.375-1.406l43.644,25.2a3.911,3.911,0,0,1,1.668,4.315,2.223,2.223,0,0,1-3.374,1.406" transform="translate(501.677 221.8)" fill="#e8975b"></path><path d="M343.606,171.127l-25.042-14.456a3.921,3.921,0,0,1-1.668-4.318,2.224,2.224,0,0,1,3.374-1.406l25.042,14.459a3.917,3.917,0,0,1,1.668,4.318,2.223,2.223,0,0,1-3.374,1.4" transform="translate(497.307 236.442)" fill="#e8975b"></path><path d="M350.122,169.424l-9.1-5.253a3.915,3.915,0,0,1-1.668-4.315,2.222,2.222,0,0,1,3.374-1.406l9.1,5.253a3.914,3.914,0,0,1,1.668,4.318,2.223,2.223,0,0,1-3.374,1.4" transform="translate(532.57 248.218)" fill="#e8975b"></path><path d="M413.491,184.143l-53.88-31.107a3.914,3.914,0,0,1-1.668-4.315,2.222,2.222,0,0,1,3.374-1.406l53.88,31.107a3.912,3.912,0,0,1,1.665,4.318,2.219,2.219,0,0,1-3.372,1.4" transform="translate(561.751 230.736)" fill="#e8975b"></path><path d="M345.884,183.375,315.781,166a3.91,3.91,0,0,1-1.665-4.315,2.219,2.219,0,0,1,3.372-1.406l30.1,17.378a3.917,3.917,0,0,1,1.668,4.318,2.222,2.222,0,0,1-3.374,1.4" transform="translate(492.94 251.084)" fill="#f8359e"></path><path d="M342.78,143.317l-22.13-12.778a3.912,3.912,0,0,1-1.668-4.315,2.221,2.221,0,0,1,3.374-1.4l22.13,12.775a3.916,3.916,0,0,1,1.665,4.318,2.219,2.219,0,0,1-3.372,1.4" transform="translate(500.582 195.42)" fill="#f8359e"></path><path d="M332.369,191.971l-25.633-14.8a3.914,3.914,0,0,1-1.665-4.315,2.219,2.219,0,0,1,3.372-1.4l25.633,14.8a3.917,3.917,0,0,1,1.668,4.318,2.222,2.222,0,0,1-3.375,1.4" transform="translate(478.74 268.635)" fill="#e8975b"></path><path d="M389.332,157.227l-10.969-6.332a2.86,2.86,0,0,1-1.218-3.156,1.622,1.622,0,0,1,2.465-1.025l10.969,6.332A2.86,2.86,0,0,1,391.8,156.2a1.624,1.624,0,0,1-2.467,1.025" transform="translate(591.956 229.939)" fill="#fff"></path><path d="M397.476,161.929,386.5,155.594a2.862,2.862,0,0,1-1.218-3.153,1.624,1.624,0,0,1,2.467-1.025l10.969,6.332a2.86,2.86,0,0,1,1.221,3.156,1.624,1.624,0,0,1-2.467,1.025" transform="translate(604.739 237.321)" fill="#fff"></path><path d="M405.618,166.629,394.646,160.3a2.864,2.864,0,0,1-1.218-3.156,1.624,1.624,0,0,1,2.467-1.025l10.969,6.332a2.858,2.858,0,0,1,1.218,3.156,1.622,1.622,0,0,1-2.465,1.025" transform="translate(617.522 244.7)" fill="#fff"></path><path d="M403.12,165.2l-.332-.2a2.869,2.869,0,0,1-1.221-3.153,1.626,1.626,0,0,1,2.467-1.028l.332.2a2.853,2.853,0,0,1,1.218,3.153,1.622,1.622,0,0,1-2.465,1.025" transform="translate(630.304 252.081)" fill="#f8359e"></path></g><g transform="translate(368.564 432.45)"><g clip-path="url(#aj)"><rect width="197.312" height="113.209" transform="translate(0 0)" fill="url(#ak)"></rect></g></g></g></g></g></svg> 